<svg width="40" height="40" viewBox="0 0 40 40" fill="none" xmlns="http://www.w3.org/2000/svg">
<g clip-path="url(#clip0_110_939)">
<path d="M3.55851 34.9417C1.6096 34.9417 0.000976562 33.364 0.000976562 31.3842V3.63541C0.000976563 1.6865 1.57866 0.0778809 3.55851 0.0778809H29.6677C31.6166 0.0778809 33.2252 1.65557 33.2252 3.63541V16.7519L33.1015 16.7209C32.5756 16.5663 32.0806 16.5044 31.5238 16.5044H31.4929L31.4619 16.4116H31.3691V3.63541C31.3691 2.7383 30.5648 1.93398 29.6677 1.93398H3.55851C2.66139 1.93398 1.85708 2.7383 1.85708 3.63541V31.3842C1.85708 32.2813 2.66139 33.0856 3.55851 33.0856H17.2627L17.2937 33.1165C17.634 33.5805 17.4484 33.9208 17.3246 34.1683C17.2009 34.3849 17.139 34.5395 17.3555 34.7561L17.5412 34.9417H3.55851Z" fill="#F29765"/>
<path d="M5.56914 6.88355C5.22886 6.88355 4.95044 6.45046 4.95044 5.92456C4.95044 5.39867 5.22886 4.96558 5.56914 4.96558H16.0871C16.4273 4.96558 16.7058 5.39867 16.7058 5.92456C16.7058 6.45046 16.4273 6.88355 16.0871 6.88355H5.56914Z" fill="#F29765"/>
<path d="M16.0871 5.05835H5.56914C5.29073 5.05835 5.04324 5.42957 5.04324 5.92453C5.04324 6.41949 5.29073 6.79071 5.56914 6.79071H16.0871C16.3655 6.79071 16.613 6.41949 16.613 5.92453C16.613 5.42957 16.3964 5.05835 16.0871 5.05835ZM5.4454 11.8331C5.16698 11.8331 4.95044 11.431 4.95044 10.8741C4.95044 10.3173 5.16698 9.91515 5.4454 9.91515H12.9936C13.272 9.91515 13.4885 10.3173 13.4885 10.8741C13.4885 11.431 13.272 11.8331 12.9936 11.8331H5.4454Z" fill="#F29765"/>
<path d="M12.9936 10.0079H5.44544C5.22889 10.0079 5.07422 10.3791 5.07422 10.8741C5.07422 11.3691 5.22889 11.7403 5.44544 11.7403H12.9936C13.2101 11.7403 13.3648 11.3691 13.3648 10.8741C13.3648 10.3791 13.1792 10.0079 12.9936 10.0079ZM28.5849 39.9221C27.5021 39.9221 26.3266 39.8603 24.8108 39.7365C22.6144 39.5509 20.6036 38.5301 18.6547 36.643L9.86915 28.0431C7.82744 26.0632 7.73463 23.4647 9.5598 21.4848C10.3332 20.6805 11.5396 20.1856 12.8389 20.1856C14.1382 20.1856 15.3137 20.6805 16.0562 21.5467C16.0871 21.5776 16.149 21.6395 16.2727 21.7014C16.3036 21.7323 16.3655 21.7633 16.3965 21.7942V17.6489V15.6072C16.3965 14.0295 16.3965 12.4209 16.4274 10.8432C16.4583 8.49211 18.2835 6.69788 20.6964 6.69788H20.7274C23.0475 6.69788 24.8108 8.3993 24.9345 10.7194C24.9655 11.2453 24.9655 11.8022 24.9345 12.359V13.0705H25.3986C27.0072 13.0705 28.2446 13.6273 29.1417 14.8029C29.1726 14.8647 29.3582 14.9266 29.6057 14.9266C29.6985 14.9266 29.7913 14.9266 29.8532 14.8957C30.1316 14.8647 30.41 14.8338 30.6575 14.8338C31.8949 14.8338 32.9776 15.3288 33.9057 16.3496C34.0604 16.5043 34.4007 16.628 34.71 16.628H34.8337C35.0503 16.5971 35.2978 16.5662 35.5143 16.5662C37.8344 16.5662 39.6905 18.2057 39.7215 20.3402C39.8143 24.269 39.8762 28.1359 39.4431 31.9718C38.9172 36.6121 36.4424 39.0869 31.6165 39.7056C30.7194 39.8603 29.6985 39.9221 28.5849 39.9221ZM12.6842 21.9489C12.0346 21.9489 11.4159 22.1963 10.9519 22.6294C10.395 23.1863 10.0857 23.8359 10.0857 24.5474C10.0857 25.2898 10.426 26.0323 11.0447 26.651L12.2202 27.8265C14.7878 30.3632 17.4482 32.9617 20.1087 35.5294C21.4079 36.7668 22.8928 37.5711 24.5324 37.8804C25.8007 38.1279 27.069 38.2516 28.3064 38.2516C29.4201 38.2516 30.5338 38.1588 31.6165 37.9423C35.5453 37.2308 37.3395 35.3437 37.7107 31.6934C38.051 28.1977 38.0201 24.6093 37.9582 21.1445V20.5877C37.9273 19.3194 37.0301 18.4532 35.7618 18.4532C35.4215 18.4532 35.1122 18.5151 34.7719 18.6388V23.4647C34.7719 23.8978 34.7719 24.733 33.9057 24.733H33.8748C33.5963 24.733 33.3798 24.6711 33.2561 24.5165C33.0086 24.269 32.9776 23.805 32.9776 23.4337V23.2481C32.9776 21.8251 33.0086 20.3712 32.9776 18.9172C32.9467 17.6489 32.0496 16.7518 30.8122 16.7518C30.5028 16.7518 30.1935 16.8136 29.9151 16.9064V21.9179C29.9151 22.351 29.8223 22.6913 29.6057 22.9078C29.451 23.0625 29.2345 23.1553 28.9561 23.1553H28.9251C28.0899 23.1244 28.0899 22.2582 28.0899 21.9489V19.9071V17.3086C28.0899 16.7208 27.8424 16.1021 27.3784 15.6381C26.9453 15.205 26.3575 14.9575 25.7698 14.9575C25.5223 14.9575 25.2439 14.9885 24.9964 15.0813V17.3086C24.9964 18.3604 24.9964 19.4741 24.9345 20.5568C24.9036 20.8352 24.6561 21.0517 24.4086 21.2683C24.3158 21.3611 24.1921 21.4539 24.0993 21.5467L24.0065 21.6395L23.9446 21.4848C23.8827 21.392 23.7899 21.2992 23.6971 21.2374C23.5115 21.0208 23.295 20.8043 23.1712 20.5568C23.0784 20.3712 23.1094 20.1546 23.1094 19.969V19.7215V17.0302C23.1094 15.0503 23.1094 13.0086 23.0784 10.9978C23.0784 9.51297 22.1194 8.52304 20.7274 8.49211C19.2115 8.49211 18.1907 9.57484 18.1907 11.1525V25.7229L17.7885 25.9704L17.7576 25.9085C17.4792 25.5992 17.1698 25.2898 16.8914 24.9805C16.2418 24.2999 15.5612 23.5575 14.8806 22.8769C14.2619 22.2891 13.4886 21.9489 12.6842 21.9489Z" fill="#F29765"/>
</g>
<defs>
<clipPath id="clip0_110_939">
<rect width="40" height="40" fill="white"/>
</clipPath>
</defs>
</svg>
