<svg width="20" height="20" viewBox="0 0 20 20" fill="none" xmlns="http://www.w3.org/2000/svg">
<path d="M12.0321 15.8747C13.2537 16.5745 14.328 15.7263 14.0944 14.2419L13.6749 11.5766L15.4519 9.68903C16.4402 8.63924 16.0319 7.26371 14.6641 7.04713L12.2084 6.65827L11.1156 4.2453C10.5034 2.89368 9.17429 2.87914 8.561 4.23331L7.46275 6.65827L5.00699 7.04713C3.6412 7.2634 3.22958 8.63776 4.21926 9.68903L5.99627 11.5766L5.57677 14.2419C5.34347 15.7242 6.41574 16.5755 7.63907 15.8747L9.83556 14.6163L12.0321 15.8747Z" fill="#FFBA00"/>
<mask id="mask0_1503_1907" style="mask-type:luminance" maskUnits="userSpaceOnUse" x="3" y="2" width="14" height="15">
<path d="M12.0321 15.8747C13.2537 16.5745 14.328 15.7263 14.0944 14.2419L13.6749 11.5766L15.4519 9.68903C16.4402 8.63924 16.0319 7.26371 14.6641 7.04713L12.2084 6.65827L11.1156 4.2453C10.5034 2.89368 9.17429 2.87914 8.561 4.23331L7.46275 6.65827L5.00699 7.04713C3.6412 7.2634 3.22958 8.63776 4.21926 9.68903L5.99627 11.5766L5.57677 14.2419C5.34347 15.7242 6.41574 16.5755 7.63907 15.8747L9.83556 14.6163L12.0321 15.8747Z" fill="white" stroke="white"/>
</mask>
<g mask="url(#mask0_1503_1907)">
</g>
</svg>
