<svg width="6" height="24" viewBox="0 0 6 24" fill="none" xmlns="http://www.w3.org/2000/svg">
<path d="M2.72347 5.33333C2.01623 5.33333 1.33795 5.05238 0.837853 4.55228C0.337756 4.05219 0.0568036 3.37391 0.0568036 2.66667C0.0568036 1.95942 0.337756 1.28115 0.837853 0.781048C1.33795 0.280951 2.01623 -1.44778e-07 2.72347 -1.14429e-07C3.43071 -8.40806e-08 4.10899 0.280951 4.60909 0.781048C5.10918 1.28115 5.39014 1.95942 5.39014 2.66667C5.39014 3.37391 5.10918 4.05219 4.60909 4.55229C4.10899 5.05238 3.43071 5.33333 2.72347 5.33333ZM2.72347 14.6667C2.01623 14.6667 1.33795 14.3857 0.837852 13.8856C0.337755 13.3855 0.0568031 12.7072 0.0568032 12C0.0568032 11.2928 0.337756 10.6145 0.837853 10.1144C1.33795 9.61429 2.01623 9.33333 2.72347 9.33333C3.43071 9.33333 4.10899 9.61429 4.60909 10.1144C5.10918 10.6145 5.39014 11.2928 5.39014 12C5.39014 12.7072 5.10918 13.3855 4.60909 13.8856C4.10899 14.3857 3.43071 14.6667 2.72347 14.6667ZM2.72347 24C2.01623 24 1.33795 23.719 0.837852 23.219C0.337755 22.7189 0.0568027 22.0406 0.0568028 21.3333C0.0568028 20.6261 0.337755 19.9478 0.837852 19.4477C1.33795 18.9476 2.01623 18.6667 2.72347 18.6667C3.43071 18.6667 4.10899 18.9476 4.60909 19.4477C5.10918 19.9478 5.39014 20.6261 5.39014 21.3333C5.39014 22.0406 5.10918 22.7189 4.60909 23.219C4.10899 23.719 3.43071 24 2.72347 24Z" fill="url(#paint0_linear_483_1391)" fill-opacity="0.8"/>
<defs>
<linearGradient id="paint0_linear_483_1391" x1="5.39014" y1="0" x2="-1.01024" y2="0.288016" gradientUnits="userSpaceOnUse">
<stop stop-opacity="0.62"/>
<stop offset="1" stop-opacity="0.53"/>
</linearGradient>
</defs>
</svg>
