<svg width="24" height="24" viewBox="0 0 24 24" fill="none" xmlns="http://www.w3.org/2000/svg">
<rect width="24" height="24" rx="12" fill="#F29765"/>
<path fill-rule="evenodd" clip-rule="evenodd" d="M8.00692 14.9948C7.73126 15.2705 7.73126 15.7174 8.00692 15.9931C8.28258 16.2687 8.72952 16.2687 9.00519 15.9931L12 12.9983L14.9948 15.9931C15.2705 16.2687 15.7174 16.2687 15.9931 15.9931C16.2687 15.7174 16.2687 15.2705 15.9931 14.9948L12.9983 12L15.9931 9.00519C16.2687 8.72952 16.2687 8.28258 15.9931 8.00692C15.7174 7.73126 15.2705 7.73125 14.9948 8.00692L12 11.0017L9.00519 8.00692C8.72952 7.73125 8.28258 7.73125 8.00692 8.00692C7.73126 8.28258 7.73125 8.72952 8.00692 9.00519L11.0017 12L8.00692 14.9948Z" fill="white"/>
</svg>
