<svg width="105" height="105" viewBox="0 0 105 105" fill="none" xmlns="http://www.w3.org/2000/svg">
<circle cx="52.5" cy="52.5" r="52.5" fill="black" fill-opacity="0.1"/>
<path fill-rule="evenodd" clip-rule="evenodd" d="M47.7604 40.1042C47.7604 39.5001 48.2501 39.0104 48.8542 39.0104H56.1458C56.7499 39.0104 57.2396 39.5001 57.2396 40.1042C57.2396 40.7082 56.7499 41.1979 56.1458 41.1979H48.8542C48.2501 41.1979 47.7604 40.7082 47.7604 40.1042ZM49.5225 42.6566H55.477C57.4738 42.6565 59.0559 42.6565 60.3194 42.7851C61.614 42.9168 62.6946 43.1923 63.6399 43.824C64.3964 44.3294 65.0458 44.9788 65.5511 45.7352C66.1827 46.6804 66.4584 47.761 66.5901 49.0554C66.7188 50.3193 66.7188 51.9022 66.7188 53.9001V54.019C66.7188 56.0157 66.7188 57.5979 66.5903 58.8614C66.4586 60.1558 66.183 61.2364 65.5514 62.1819C65.0459 62.9382 64.3965 63.5876 63.6402 64.093C62.6948 64.7246 61.6141 65.0002 60.3197 65.1319C59.0562 65.2604 57.4741 65.2604 55.4773 65.2604H49.5227C47.5259 65.2604 45.9438 65.2604 44.6803 65.1319C43.3859 65.0002 42.3052 64.7246 41.3599 64.093C40.6035 63.5876 39.9541 62.9382 39.4487 62.1819C38.817 61.2364 38.5414 60.1558 38.4098 58.8614C38.2812 57.5979 38.2812 56.0157 38.2813 54.019V53.895C38.2812 51.8992 38.2812 50.3176 38.4097 49.0547C38.5414 47.7606 38.8169 46.6803 39.4485 45.7352C39.9538 44.9788 40.6033 44.3294 41.3596 43.824C42.305 43.1923 43.3856 42.9168 44.6801 42.7851C45.9436 42.6565 47.5257 42.6565 49.5225 42.6566ZM44.9015 44.9613C43.78 45.0754 43.1009 45.2914 42.5749 45.6428C42.0574 45.9886 41.6131 46.433 41.2673 46.9505C40.9159 47.4763 40.7001 48.1551 40.586 49.2761C40.4701 50.4154 40.4688 51.8856 40.4688 53.9556V53.9583C40.4688 56.0293 40.4701 57.5002 40.586 58.6399C40.7001 59.7615 40.9161 60.4405 41.2675 60.9665C41.6133 61.4841 42.0576 61.9284 42.5752 62.2742C43.1011 62.6256 43.7802 62.8416 44.9017 62.9557C46.0415 63.0716 47.5124 63.0729 49.5833 63.0729H55.4167C57.4876 63.0729 58.9585 63.0716 60.0982 62.9557C61.2198 62.8416 61.8988 62.6256 62.4248 62.2742C62.9424 61.9284 63.3867 61.4841 63.7325 60.9665C64.084 60.4405 64.3 59.7615 64.414 58.6399C64.5299 57.5002 64.5313 56.0293 64.5313 53.9583C64.5313 51.8873 64.5299 50.4166 64.4139 49.2769C64.2998 48.1555 64.0837 47.4765 63.7322 46.9505C63.3865 46.433 62.9421 45.9886 62.4247 45.6428C61.8987 45.2914 61.2195 45.0754 60.0981 44.9613C58.9582 44.8454 57.4874 44.8441 55.4165 44.8441H49.5831C47.5122 44.8441 46.0413 44.8454 44.9015 44.9613ZM52.5 50.6771C50.6879 50.6771 49.2188 52.1462 49.2188 53.9583C49.2188 55.7704 50.6879 57.2396 52.5 57.2396C54.3121 57.2396 55.7813 55.7704 55.7813 53.9583C55.7813 52.1462 54.3121 50.6771 52.5 50.6771ZM47.0313 53.9583C47.0313 50.938 49.4797 48.4896 52.5 48.4896C55.5204 48.4896 57.9688 50.938 57.9688 53.9583C57.9688 56.9787 55.5204 59.4271 52.5 59.4271C49.4797 59.4271 47.0313 56.9787 47.0313 53.9583ZM59.4271 49.5833C59.4271 48.9793 59.9168 48.4896 60.5208 48.4896H61.25C61.854 48.4896 62.3438 48.9793 62.3438 49.5833C62.3438 50.1874 61.854 50.6771 61.25 50.6771H60.5208C59.9168 50.6771 59.4271 50.1874 59.4271 49.5833Z" fill="#1C274C"/>
</svg>
