<svg width="20" height="20" viewBox="0 0 20 20" fill="none" xmlns="http://www.w3.org/2000/svg">
<path fill-rule="evenodd" clip-rule="evenodd" d="M8.39996 1.71429C8.24217 1.71429 8.11425 1.84221 8.11425 2V3.8224C8.11425 4.29578 7.73049 4.67954 7.25711 4.67954C6.78372 4.67954 6.39996 4.29578 6.39996 3.8224V2C6.39996 0.89543 7.29539 0 8.39996 0H11.6C12.7045 0 13.6 0.895431 13.6 2V3.8224C13.6 4.29578 13.2162 4.67954 12.7428 4.67954C12.2694 4.67954 11.8857 4.29578 11.8857 3.8224V2C11.8857 1.8422 11.7578 1.71429 11.6 1.71429H8.39996Z" fill="#F29765"/>
<path fill-rule="evenodd" clip-rule="evenodd" d="M5.48572 3.82248C5.48572 3.34909 5.86947 2.96533 6.34286 2.96533L8.17143 2.96533C8.64482 2.96533 9.02858 3.34909 9.02858 3.82248C9.02858 4.29586 8.64482 4.67962 8.17143 4.67962L6.34286 4.67962C5.86947 4.67962 5.48572 4.29586 5.48572 3.82248Z" fill="#F29765"/>
<path fill-rule="evenodd" clip-rule="evenodd" d="M10.9714 3.82248C10.9714 3.34909 11.3551 2.96533 11.8285 2.96533H13.6571C14.1305 2.96533 14.5142 3.34909 14.5142 3.82248C14.5142 4.29586 14.1305 4.67962 13.6571 4.67962H11.8285C11.3551 4.67962 10.9714 4.29586 10.9714 3.82248Z" fill="#F29765"/>
<path fill-rule="evenodd" clip-rule="evenodd" d="M18.5765 5.5816C18.4392 5.57121 18.2763 5.55906 18.0914 5.54558L17.0496 16.9336C16.8878 18.6823 15.4018 20 13.647 20H5.97938C4.18453 20 2.68144 18.6229 2.57096 16.8313L1.88701 5.61605L1.88283 5.54746C1.70852 5.56019 1.55437 5.57169 1.42349 5.5816C1.26457 5.59364 1.13999 5.60332 1.0553 5.60998L0.926495 5.62023C0.454664 5.65854 0.0411092 5.30711 0.00279228 4.83528C-0.0355248 4.36344 0.31657 3.94983 0.788404 3.91151L0.920888 3.90097C1.00712 3.89419 1.13335 3.88438 1.29403 3.87221C1.61536 3.84788 2.07458 3.8141 2.62713 3.77626C4.56073 3.64384 7.66738 3.45947 9.99998 3.45947C12.3326 3.45947 15.4392 3.64384 17.3728 3.77626C17.9254 3.8141 18.3846 3.84788 18.7059 3.87221C18.8666 3.88438 18.9929 3.89419 19.0791 3.90097L19.2122 3.91157C19.6841 3.94988 20.0355 4.36344 19.9972 4.83528C19.9589 5.30711 19.5449 5.65851 19.0731 5.62019L18.9447 5.60998C18.86 5.60332 18.7354 5.59364 18.5765 5.5816ZM10.8572 8.76458C10.8572 8.29119 10.4734 7.90744 10 7.90744C9.52663 7.90744 9.14287 8.29119 9.14287 8.76458V14.6951C9.14287 15.1685 9.52663 15.5522 10 15.5522C10.4734 15.5522 10.8572 15.1685 10.8572 14.6951V8.76458ZM6.34292 8.89579C6.81631 8.89579 7.20007 9.27954 7.20007 9.75293V13.7066C7.20007 14.18 6.81631 14.5637 6.34292 14.5637C5.86954 14.5637 5.48578 14.18 5.48578 13.7066V9.75293C5.48578 9.27954 5.86954 8.89579 6.34292 8.89579ZM14.5142 9.75293C14.5142 9.27954 14.1305 8.89579 13.6571 8.89579C13.1837 8.89579 12.8 9.27954 12.8 9.75293V13.7066C12.8 14.18 13.1837 14.5637 13.6571 14.5637C14.1305 14.5637 14.5142 14.18 14.5142 13.7066V9.75293Z" fill="#F29765"/>
</svg>
