<svg width="20" height="18" viewBox="0 0 20 18" fill="none" xmlns="http://www.w3.org/2000/svg">
    <path d="M7.76057 11.3668C7.18557 10.7928 6.83557 10.0128 6.83557 9.1378C6.83557 7.3848 8.24757 5.9718 9.99957 5.9718C10.8666 5.9718 11.6646 6.3228 12.2296 6.8968" stroke="#321F14" stroke-width="1.5" stroke-linecap="round" stroke-linejoin="round"/>
    <path d="M13.1047 9.69891C12.8727 10.9889 11.8567 12.0069 10.5677 12.2409" stroke="#321F14" stroke-width="1.5" stroke-linecap="round" stroke-linejoin="round"/>
    <path d="M4.65457 14.4723C3.06757 13.2263 1.72357 11.4063 0.749573 9.1373C1.73357 6.8583 3.08657 5.0283 4.68357 3.7723C6.27057 2.5163 8.10157 1.8343 9.99957 1.8343C11.9086 1.8343 13.7386 2.5263 15.3356 3.7913" stroke="#321F14" stroke-width="1.5" stroke-linecap="round" stroke-linejoin="round"/>
    <path d="M17.4476 5.99081C18.1356 6.90481 18.7406 7.95981 19.2496 9.13681C17.2826 13.6938 13.8066 16.4388 9.99959 16.4388C9.13659 16.4388 8.28559 16.2988 7.46759 16.0258" stroke="#321F14" stroke-width="1.5" stroke-linecap="round" stroke-linejoin="round"/>
    <path d="M17.887 1.2496L2.11298 17.0236" stroke="#321F14" stroke-width="1.5" stroke-linecap="round" stroke-linejoin="round"/>
</svg>