<svg width="19" height="19" viewBox="0 0 19 19" fill="none" xmlns="http://www.w3.org/2000/svg">
<path d="M8.83752 17.2602H1.52504V1.51022H8.83752C9.14803 1.51022 9.4 1.2582 9.4 0.947738C9.4 0.637273 9.14798 0.385254 8.83752 0.385254H0.962508C0.652043 0.385254 0.400024 0.637226 0.400024 0.947738V17.8227C0.400024 18.1332 0.652043 18.3852 0.962508 18.3852H8.83747C9.14798 18.3852 9.39995 18.1331 9.39995 17.8227C9.4 17.5122 9.14798 17.2602 8.83752 17.2602Z" fill="black"/>
<path d="M18.2368 8.99251L14.3556 5.05559C14.1357 4.8334 13.7796 4.83396 13.5602 5.05559C13.3403 5.27722 13.3403 5.6372 13.5602 5.85883L16.4852 8.82601H4.90172C4.59121 8.82601 4.33923 9.08027 4.33923 9.39415C4.33923 9.70803 4.59125 9.96229 4.90172 9.96229H16.4852L13.5602 12.9295C13.3403 13.1517 13.3403 13.5111 13.5602 13.7327C13.7802 13.9549 14.1362 13.9549 14.3556 13.7327L18.2363 9.79579C18.4534 9.57697 18.4557 9.21077 18.2368 8.99251Z" fill="black"/>
</svg>
