<svg width="13" height="14" viewBox="0 0 13 14" fill="none" xmlns="http://www.w3.org/2000/svg">
<path d="M1.41 5.64329L1.85833 5.60274C1.83757 5.35158 1.63136 5.16211 1.3906 5.17298C1.14984 5.18385 0.959999 5.39119 0.959999 5.64329H1.41ZM11.7517 6.78764L11.3284 9.3483L12.2152 9.50879L12.6385 6.94807L11.7517 6.78764ZM7.557 12.5575H4.76781V13.4989H7.557V12.5575ZM4.22099 12.0318L3.73369 6.13638L2.83704 6.21747L3.32434 12.1129L4.22099 12.0318ZM11.3284 9.3483C11.0243 11.1877 9.43878 12.5575 7.557 12.5575V13.4989C9.85272 13.4989 11.8325 11.8237 12.2152 9.50879L11.3284 9.3483ZM7.56288 2.42085L7.16526 4.95947L8.05344 5.11169L8.45106 2.57308L7.56288 2.42085ZM3.92264 5.65044L4.78588 4.8723L4.19837 4.15909L3.33513 4.93725L3.92264 5.65044ZM6.3564 2.34046L6.64182 1.18942L5.77068 0.953021L5.48525 2.10405L6.3564 2.34046ZM7.07292 0.96359L7.15992 0.99282L7.4352 0.0964536L7.3482 0.0672234L7.07292 0.96359ZM5.9241 3.49782C6.11124 3.13126 6.25662 2.74299 6.3564 2.34046L5.48525 2.10405C5.40344 2.43398 5.28419 2.75275 5.13025 3.05422L5.9241 3.49782ZM7.15992 0.99282C7.34376 1.05461 7.47432 1.20316 7.51722 1.37623L8.38842 1.13984C8.26512 0.642718 7.9014 0.253124 7.4352 0.0964536L7.15992 0.99282ZM6.64182 1.18942C6.66288 1.10468 6.72138 1.02681 6.80988 0.982188L6.41916 0.134038C6.09996 0.294932 5.8602 0.591928 5.77068 0.953021L6.64182 1.18942ZM6.80988 0.982188C6.8907 0.941434 6.98586 0.934341 7.07292 0.96359L7.3482 0.0672234C7.04238 -0.0355558 6.70872 -0.0119244 6.41916 0.134038L6.80988 0.982188ZM8.10222 6.11403H11.2109V5.17254H8.10222V6.11403ZM2.44129 12.6554L1.85833 5.60274L0.961673 5.68384L1.54463 12.7365L2.44129 12.6554ZM1.86 12.7223V5.64329H0.959999V12.7223H1.86ZM1.54463 12.7365C1.53672 12.6408 1.60888 12.5575 1.70203 12.5575V13.4989C2.13761 13.4989 2.47873 13.1085 2.44129 12.6554L1.54463 12.7365ZM8.45106 2.57308C8.52576 2.09598 8.50446 1.6078 8.38842 1.13984L7.51722 1.37623C7.60182 1.7173 7.61736 2.07311 7.56288 2.42085L8.45106 2.57308ZM4.76781 12.5575C4.48346 12.5575 4.24561 12.3296 4.22099 12.0318L3.32434 12.1129C3.38911 12.8965 4.01562 13.4989 4.76781 13.4989V12.5575ZM4.78588 4.8723C5.19379 4.50459 5.63352 4.0669 5.9241 3.49782L5.13025 3.05422C4.92242 3.46121 4.5915 3.8047 4.19837 4.15909L4.78588 4.8723ZM12.6385 6.94807C12.7917 6.02133 12.1105 5.17254 11.2109 5.17254V6.11403C11.5508 6.11403 11.8099 6.43521 11.7517 6.78764L12.6385 6.94807ZM1.70203 12.5575C1.78975 12.5575 1.86 12.6318 1.86 12.7223H0.959999C0.959999 13.1508 1.29173 13.4989 1.70203 13.4989V12.5575ZM7.16526 4.95947C7.07064 5.56383 7.51596 6.11403 8.10222 6.11403V5.17254C8.07228 5.17254 8.04834 5.14418 8.05344 5.11169L7.16526 4.95947ZM3.73369 6.13638C3.71844 5.95185 3.78885 5.77108 3.92264 5.65044L3.33513 4.93725C2.98213 5.25546 2.79689 5.73185 2.83704 6.21747L3.73369 6.13638Z" fill="#321F14"/>
</svg>
