<svg width="122" height="122" viewBox="0 0 122 122" fill="none" xmlns="http://www.w3.org/2000/svg">
<rect width="122" height="122" rx="6" fill="black" fill-opacity="0.1"/>
<path fill-rule="evenodd" clip-rule="evenodd" d="M54.9339 46.8175C54.9339 46.1156 55.5029 45.5467 56.2048 45.5467H64.677C65.3788 45.5467 65.9478 46.1156 65.9478 46.8175C65.9478 47.5194 65.3788 48.0883 64.677 48.0883H56.2048C55.5029 48.0883 54.9339 47.5194 54.9339 46.8175ZM56.9813 49.7831H63.8999C66.22 49.7831 68.0583 49.7831 69.5263 49.9325C71.0305 50.0855 72.2861 50.4057 73.3844 51.1396C74.2633 51.7268 75.0178 52.4814 75.605 53.3602C76.3388 54.4585 76.6593 55.714 76.8123 57.218C76.9617 58.6866 76.9617 60.5257 76.9617 62.8471V62.9852C76.9617 65.3052 76.9617 67.1435 76.8124 68.6116C76.6594 70.1156 76.3392 71.3712 75.6053 72.4697C75.018 73.3484 74.2635 74.103 73.3847 74.6903C72.2862 75.4241 71.0306 75.7444 69.5267 75.8974C68.0586 76.0467 66.2203 76.0467 63.9003 76.0467H56.9816C54.6615 76.0467 52.8232 76.0467 51.3552 75.8974C49.8511 75.7444 48.5955 75.4241 47.4971 74.6903C46.6183 74.103 45.8637 73.3484 45.2765 72.4697C44.5426 71.3712 44.2224 70.1156 44.0694 68.6116C43.92 67.1435 43.92 65.3052 43.92 62.9852V62.8412C43.92 60.5222 43.92 58.6845 44.0693 57.2171C44.2223 55.7136 44.5425 54.4583 45.2762 53.3602C45.8634 52.4814 46.618 51.7268 47.4968 51.1396C48.5952 50.4057 49.8509 50.0855 51.3549 49.9325C52.8229 49.7831 54.6612 49.7831 56.9813 49.7831ZM51.6121 52.4611C50.309 52.5936 49.52 52.8445 48.9089 53.2529C48.3076 53.6547 47.7913 54.171 47.3896 54.7723C46.9813 55.3833 46.7305 56.1719 46.5979 57.4744C46.4633 58.7982 46.4617 60.5064 46.4617 62.9115V62.9147C46.4617 65.321 46.4633 67.03 46.598 68.3542C46.7305 69.6574 46.9814 70.4464 47.3898 71.0575C47.7916 71.6589 48.3079 72.1752 48.9092 72.5769C49.5203 72.9853 50.3093 73.2363 51.6124 73.3688C52.9367 73.5035 54.6458 73.505 57.052 73.505H63.8298C66.236 73.505 67.9451 73.5035 69.2693 73.3688C70.5725 73.2363 71.3614 72.9853 71.9726 72.5769C72.5739 72.1752 73.0902 71.6589 73.492 71.0575C73.9004 70.4464 74.1513 69.6574 74.2838 68.3542C74.4185 67.03 74.42 65.321 74.42 62.9147C74.42 60.5084 74.4185 58.7996 74.2836 57.4754C74.1511 56.1724 73.9 55.3835 73.4917 54.7723C73.0899 54.171 72.5736 53.6547 71.9724 53.2529C71.3612 52.8445 70.5721 52.5936 69.2691 52.4611C67.9447 52.3264 66.2357 52.3248 63.8296 52.3248H57.0517C54.6455 52.3248 52.9365 52.3264 51.6121 52.4611ZM60.4409 59.1022C58.3354 59.1022 56.6284 60.8092 56.6284 62.9147C56.6284 65.0202 58.3354 66.7272 60.4409 66.7272C62.5464 66.7272 64.2534 65.0202 64.2534 62.9147C64.2534 60.8092 62.5464 59.1022 60.4409 59.1022ZM54.0867 62.9147C54.0867 59.4054 56.9316 56.5606 60.4409 56.5606C63.9502 56.5606 66.795 59.4054 66.795 62.9147C66.795 66.4241 63.9502 69.2689 60.4409 69.2689C56.9316 69.2689 54.0867 66.4241 54.0867 62.9147ZM68.4895 57.8314C68.4895 57.1295 69.0585 56.5606 69.7603 56.5606H70.6075C71.3094 56.5606 71.8784 57.1295 71.8784 57.8314C71.8784 58.5332 71.3094 59.1022 70.6075 59.1022H69.7603C69.0585 59.1022 68.4895 58.5332 68.4895 57.8314Z" fill="#1C274C"/>
</svg>
