<svg width="24" height="24" viewBox="0 0 24 24" fill="none" xmlns="http://www.w3.org/2000/svg">
<g filter="url(#filter0_d_789_1521)">
<path d="M6.34338 13.6575C9.46028 16.7744 14.5344 16.7801 17.657 13.6575C20.7739 10.5406 20.7739 5.46078 17.657 2.34389C14.5344 -0.77867 9.46028 -0.773014 6.34338 2.34389C3.27375 5.41352 3.22172 10.3637 6.1873 13.4971L6.34338 13.6575Z" fill="white"/>
<path d="M15.3 4.70096C15.0397 4.44061 14.6176 4.44061 14.3572 4.70096L12.0002 7.05798L9.64316 4.70096C9.38281 4.44061 8.96071 4.44061 8.70036 4.70096C8.44001 4.96131 8.44001 5.38342 8.70036 5.64377L11.0574 8.00079L8.70036 10.3578C8.44001 10.6182 8.44001 11.0403 8.70036 11.3006C8.9607 11.561 9.38281 11.561 9.64316 11.3006L12.0002 8.9436L14.3572 11.3006C14.6176 11.561 15.0397 11.561 15.3 11.3006C15.5604 11.0403 15.5604 10.6182 15.3 10.3578L12.943 8.00079L15.3 5.64377C15.5604 5.38342 15.5604 4.96131 15.3 4.70096Z" fill="black"/>
</g>
<defs>
<filter id="filter0_d_789_1521" x="0.00146484" y="0.00408936" width="23.9932" height="23.9932" filterUnits="userSpaceOnUse" color-interpolation-filters="sRGB">
<feFlood flood-opacity="0" result="BackgroundImageFix"/>
<feColorMatrix in="SourceAlpha" type="matrix" values="0 0 0 0 0 0 0 0 0 0 0 0 0 0 0 0 0 0 127 0" result="hardAlpha"/>
<feOffset dy="4"/>
<feGaussianBlur stdDeviation="2"/>
<feComposite in2="hardAlpha" operator="out"/>
<feColorMatrix type="matrix" values="0 0 0 0 0 0 0 0 0 0 0 0 0 0 0 0 0 0 0.25 0"/>
<feBlend mode="normal" in2="BackgroundImageFix" result="effect1_dropShadow_789_1521"/>
<feBlend mode="normal" in="SourceGraphic" in2="effect1_dropShadow_789_1521" result="shape"/>
</filter>
</defs>
</svg>
