<svg width="24" height="26" viewBox="0 0 24 26" fill="none" xmlns="http://www.w3.org/2000/svg">
<path d="M1.33334 3.66667L9.33334 3.66667M9.33334 3.66667C9.33334 5.13943 10.5273 6.33333 12 6.33333C13.4728 6.33333 14.6667 5.13943 14.6667 3.66667M9.33334 3.66667C9.33334 2.19391 10.5273 1 12 1C13.4728 1 14.6667 2.19391 14.6667 3.66667M14.6667 3.66667L22.6667 3.66667M1.33334 13L17.3333 13M17.3333 13C17.3333 14.4728 18.5272 15.6667 20 15.6667C21.4728 15.6667 22.6667 14.4728 22.6667 13C22.6667 11.5272 21.4728 10.3333 20 10.3333C18.5273 10.3333 17.3333 11.5272 17.3333 13ZM6.66668 22.3333L22.6667 22.3333M6.66668 22.3333C6.66668 20.8606 5.47277 19.6667 4.00001 19.6667C2.52725 19.6667 1.33334 20.8606 1.33334 22.3333C1.33334 23.8061 2.52725 25 4.00001 25C5.47277 25 6.66668 23.8061 6.66668 22.3333Z" stroke="white" stroke-width="1.5" stroke-linecap="round"/>
</svg>
