<svg width="30" height="30" viewBox="0 0 30 30" fill="none" xmlns="http://www.w3.org/2000/svg">
<path d="M13.4444 1H16.5556C17.4147 1 18.1111 1.69645 18.1111 2.55556V3.44033C18.1111 4.1058 18.5577 4.68394 19.1723 4.93911C19.7872 5.19437 20.503 5.09709 20.9738 4.62635L21.5996 4.00052C22.2071 3.39304 23.192 3.39304 23.7995 4.00052L25.9994 6.20041C26.6069 6.80789 26.6069 7.79282 25.9994 8.4003L25.3736 9.02604C24.9029 9.49681 24.8056 10.2127 25.0609 10.8276C25.3161 11.4422 25.8942 11.8889 26.5597 11.8889L27.4444 11.8889C28.3036 11.8889 29 12.5853 29 13.4444V16.5556C29 17.4147 28.3036 18.1111 27.4444 18.1111H26.5597C25.8942 18.1111 25.3161 18.5577 25.0609 19.1724C24.8056 19.7872 24.9029 20.5031 25.3736 20.9739L25.9994 21.5996C26.6069 22.2071 26.6069 23.192 25.9994 23.7995L23.7995 25.9994C23.192 26.6069 22.2071 26.6069 21.5996 25.9994L20.9739 25.3736C20.5031 24.9029 19.7872 24.8056 19.1724 25.0609C18.5577 25.3161 18.1111 25.8942 18.1111 26.5597V27.4444C18.1111 28.3036 17.4147 29 16.5556 29H13.4444C12.5853 29 11.8889 28.3036 11.8889 27.4444V26.5597C11.8889 25.8942 11.4422 25.3161 10.8276 25.0609C10.2127 24.8056 9.49681 24.9029 9.02604 25.3736L8.40027 25.9994C7.79279 26.6069 6.80787 26.6069 6.20039 25.9994L4.0005 23.7995C3.39302 23.192 3.39302 22.2071 4.0005 21.5996L4.62635 20.9738C5.09709 20.503 5.19437 19.7872 4.93911 19.1723C4.68394 18.5577 4.1058 18.1111 3.44033 18.1111H2.55556C1.69645 18.1111 1 17.4147 1 16.5556V13.4444C1 12.5853 1.69645 11.8889 2.55556 11.8889L3.4403 11.8889C4.10579 11.8889 4.68394 11.4423 4.93912 10.8276C5.1944 10.2128 5.09711 9.49689 4.62636 9.02614L4.00052 8.4003C3.39304 7.79282 3.39304 6.8079 4.00052 6.20042L6.20041 4.00053C6.80789 3.39305 7.79282 3.39305 8.4003 4.00053L9.02613 4.62636C9.49688 5.09711 10.2128 5.1944 10.8276 4.93912C11.4423 4.68394 11.8889 4.10579 11.8889 3.4403V2.55556C11.8889 1.69645 12.5853 1 13.4444 1Z" stroke="#321F14" stroke-width="1.5"/>
<path d="M18.1111 15C18.1111 16.7182 16.7182 18.1111 15 18.1111C13.2818 18.1111 11.8889 16.7182 11.8889 15C11.8889 13.2818 13.2818 11.8889 15 11.8889C16.7182 11.8889 18.1111 13.2818 18.1111 15Z" stroke="#321F14" stroke-width="1.5"/>
</svg>
